M48
; DRILL file {KiCad 6.0.4-1.fc36} date Wed 11 May 2022 06:23:02 PM PDT
; FORMAT={-:-/ absolute / metric / decimal}
; #@! TF.CreationDate,2022-05-11T18:23:02-07:00
; #@! TF.GenerationSoftware,Kicad,Pcbnew,6.0.4-1.fc36
; #@! TF.FileFunction,Plated,1,2,PTH
FMAT,2
METRIC
; #@! TA.AperFunction,Plated,PTH,ViaDrill
T1C0.800
; #@! TA.AperFunction,Plated,PTH,ComponentDrill
T2C1.000
%
G90
G05
T1
X168.275Y-82.423
X171.45Y-64.516
X171.704Y-84.201
X173.228Y-76.2
X174.625Y-72.39
X175.006Y-62.611
X176.022Y-76.2
X177.419Y-72.39
X178.562Y-62.611
X178.816Y-76.2
X180.213Y-72.39
T2
X121.158Y-67.945
X121.158Y-70.485
X121.158Y-73.025
X121.158Y-75.565
X121.158Y-78.105
X121.158Y-80.645
X124.5Y-68.915
X124.5Y-79.675
X127.0Y-63.915
X127.0Y-84.675
X129.5Y-68.915
X129.5Y-79.675
X166.035Y-71.795
X166.035Y-76.795
X171.035Y-74.295
X185.49Y-64.135
X185.49Y-66.675
X185.49Y-69.215
X185.49Y-71.755
X185.49Y-74.295
X185.49Y-76.835
X185.49Y-79.375
X185.49Y-81.915
X185.49Y-84.455
T0
M30
