M48
; DRILL file {KiCad 6.0.4-1.fc36} date Wed 11 May 2022 04:23:27 PM PDT
; FORMAT={-:-/ absolute / metric / decimal}
; #@! TF.CreationDate,2022-05-11T16:23:27-07:00
; #@! TF.GenerationSoftware,Kicad,Pcbnew,6.0.4-1.fc36
; #@! TF.FileFunction,Plated,1,2,PTH
FMAT,2
METRIC
; #@! TA.AperFunction,Plated,PTH,ComponentDrill
T1C1.000
%
G90
G05
T1
X59.69Y-82.57
X59.69Y-85.11
X59.69Y-87.65
X59.69Y-90.19
X59.69Y-92.73
X59.69Y-95.27
X59.69Y-97.81
X59.69Y-100.35
X59.69Y-102.89
X78.74Y-82.55
X78.74Y-85.09
X78.74Y-87.63
X78.74Y-90.17
X78.74Y-92.71
X78.74Y-95.25
X78.74Y-97.79
X78.74Y-100.33
X78.74Y-102.87
X97.765Y-82.56
X97.765Y-85.1
X97.765Y-87.64
X97.765Y-90.18
X97.765Y-92.72
X97.765Y-95.26
X97.765Y-97.8
X97.765Y-100.34
X97.765Y-102.88
X116.815Y-82.56
X116.815Y-85.1
X116.815Y-87.64
X116.815Y-90.18
X116.815Y-92.72
X116.815Y-95.26
X116.815Y-97.8
X116.815Y-100.34
X116.815Y-102.88
X135.865Y-82.56
X135.865Y-85.1
X135.865Y-87.64
X135.865Y-90.18
X135.865Y-92.72
X135.865Y-95.26
X135.865Y-97.8
X135.865Y-100.34
X135.865Y-102.88
T0
M30
