M48
; DRILL file {KiCad (6.0.5)} date Wed May 18 10:38:27 2022
; FORMAT={-:-/ absolute / inch / decimal}
; #@! TF.CreationDate,2022-05-18T10:38:27-07:00
; #@! TF.GenerationSoftware,Kicad,Pcbnew,(6.0.5)
; #@! TF.FileFunction,Plated,1,2,PTH
FMAT,2
INCH
; #@! TA.AperFunction,Plated,PTH,ViaDrill
T1C0.0315
; #@! TA.AperFunction,Plated,PTH,ComponentDrill
T2C0.0394
; #@! TA.AperFunction,Plated,PTH,ComponentDrill
T3C0.0472
; #@! TA.AperFunction,Plated,PTH,ComponentDrill
T4C0.0591
; #@! TA.AperFunction,Plated,PTH,ComponentDrill
T5C0.0598
%
G90
G05
T1
X4.3287Y-3.698
X4.6258Y-2.9175
X4.7577Y-3.0293
X4.8311Y-3.6315
X4.9035Y-3.435
X4.9142Y-2.8799
X4.9177Y-3.5949
X4.9287Y-2.9689
X4.9406Y-3.1165
X5.1512Y-2.9819
X5.235Y-3.7287
X5.2807Y-3.0894
X5.2984Y-3.4382
X5.348Y-3.6173
X5.3545Y-3.6994
X5.3744Y-3.1768
X5.4161Y-3.5791
X5.4205Y-2.9224
X5.45Y-3.2417
X5.4886Y-3.0689
X5.728Y-3.4921
X5.839Y-3.661
X5.8484Y-4.0472
X6.6276Y-3.5787
X7.3319Y-3.857
X7.4852Y-4.0102
X7.678Y-4.126
X7.6799Y-3.4059
X7.6799Y-3.6996
X7.8642Y-4.0642
T2
X4.4417Y-4.2484
X4.4417Y-4.3484
X4.4417Y-4.4484
X4.4417Y-4.5484
X4.4417Y-4.6484
X4.4417Y-4.7484
X4.452Y-3.3579
X4.5504Y-3.5547
X4.6488Y-3.3579
X4.885Y-2.1555
X4.9252Y-2.5504
X4.9835Y-2.3524
X5.0236Y-2.7472
X5.0819Y-2.1555
X5.122Y-2.5504
X5.198Y-4.2484
X5.198Y-4.3484
X5.198Y-4.4484
X5.198Y-4.5484
X5.198Y-4.6484
X5.198Y-4.7484
X5.4937Y-2.3406
X5.4937Y-2.4406
X5.4937Y-2.5406
X5.4937Y-2.6406
X5.4937Y-2.7406
X5.9542Y-4.2484
X5.9542Y-4.3484
X5.9542Y-4.4484
X5.9542Y-4.5484
X5.9542Y-4.6484
X5.9542Y-4.7484
X6.0957Y-3.1949
X6.1941Y-3.3917
X6.2925Y-3.1949
X6.361Y-3.7311
X6.4594Y-3.928
X6.5579Y-3.7311
X6.7105Y-4.2484
X6.7105Y-4.3484
X6.7105Y-4.4484
X6.7105Y-4.5484
X6.7105Y-4.6484
X6.7105Y-4.7484
X6.7791Y-3.2055
X6.8776Y-3.4024
X6.9638Y-3.765
X6.976Y-3.2055
X7.0622Y-3.9618
X7.1606Y-3.765
X7.3823Y-3.2484
X7.4667Y-4.2484
X7.4667Y-4.3484
X7.4667Y-4.4484
X7.4667Y-4.5484
X7.4667Y-4.6484
X7.4667Y-4.7484
X7.4807Y-3.4453
X7.4937Y-2.39
X7.4937Y-2.49
X7.4937Y-2.59
X7.4937Y-2.69
X7.5791Y-3.2484
T3
X3.6669Y-4.5033
X3.6669Y-4.8435
X3.7418Y-2.2153
X3.7418Y-2.692
X3.7458Y-3.1991
X3.8165Y-4.5033
X3.8165Y-4.8435
X4.0371Y-2.2121
X4.0371Y-2.6889
X4.041Y-3.196
T4
X3.8985Y-2.1531
X3.8985Y-2.6298
X3.9025Y-3.1369
X4.1166Y-2.1097
X4.1166Y-2.5865
X4.1178Y-2.3219
X4.1178Y-2.7987
X4.1206Y-3.0936
X4.1218Y-3.3058
T5
X3.8563Y-3.6343
X3.8563Y-3.8343
X3.8563Y-4.0343
X3.8563Y-4.2343
T0
M30
