M48
; DRILL file {KiCad 6.0.5-2.fc36} date Mon 30 May 2022 03:08:56 PM PDT
; FORMAT={-:-/ absolute / metric / decimal}
; #@! TF.CreationDate,2022-05-30T15:08:56-07:00
; #@! TF.GenerationSoftware,Kicad,Pcbnew,6.0.5-2.fc36
; #@! TF.FileFunction,Plated,1,2,PTH
FMAT,2
METRIC
; #@! TA.AperFunction,Plated,PTH,ComponentDrill
T1C0.800
; #@! TA.AperFunction,Plated,PTH,ComponentDrill
T2C1.000
; #@! TA.AperFunction,Plated,PTH,ComponentDrill
T3C1.100
; #@! TA.AperFunction,Plated,PTH,ComponentDrill
T4C1.200
; #@! TA.AperFunction,Plated,PTH,ViaDrill
T5C1.500
; #@! TA.AperFunction,Plated,PTH,ComponentDrill
T6C1.500
; #@! TA.AperFunction,Plated,PTH,ComponentDrill
T7C3.000
%
G90
G05
T1
X105.79Y-90.09
X105.79Y-91.995
X105.79Y-93.9
X105.79Y-95.805
X105.79Y-97.71
X105.79Y-99.615
X189.31Y-98.425
X191.215Y-98.425
X193.12Y-98.425
X195.025Y-98.425
X196.93Y-98.425
X198.835Y-98.425
T2
X102.875Y-121.285
X105.415Y-121.285
X110.906Y-103.597
X110.906Y-106.137
X110.906Y-108.677
X110.906Y-111.217
X110.906Y-113.757
X110.906Y-116.297
X123.825Y-79.375
X123.825Y-81.915
X123.825Y-84.455
X123.825Y-86.995
X123.825Y-89.535
X130.114Y-103.597
X130.114Y-106.137
X130.114Y-108.677
X130.114Y-111.217
X130.114Y-113.757
X130.114Y-116.297
X149.323Y-103.597
X149.323Y-106.137
X149.323Y-108.677
X149.323Y-111.217
X149.323Y-113.757
X149.323Y-116.297
X168.532Y-103.597
X168.532Y-106.137
X168.532Y-108.677
X168.532Y-111.217
X168.532Y-113.757
X168.532Y-116.297
X174.625Y-80.63
X174.625Y-83.17
X174.625Y-85.71
X174.625Y-88.25
X187.741Y-103.597
X187.741Y-106.137
X187.741Y-108.677
X187.741Y-111.217
X187.741Y-113.757
X187.741Y-116.297
X195.457Y-75.565
X200.457Y-73.065
X200.457Y-78.065
T3
X185.42Y-72.08
X185.42Y-77.47
X187.96Y-72.08
X187.96Y-77.47
X190.5Y-72.08
X190.5Y-77.47
T4
X90.229Y-80.687
X90.229Y-108.627
X93.139Y-114.385
X93.139Y-123.025
X96.939Y-114.385
X96.939Y-123.025
X97.729Y-80.767
X97.729Y-108.707
T5
X100.33Y-114.935
X100.647Y-117.792
X102.998Y-77.977
X103.323Y-83.367
X107.95Y-90.17
X111.125Y-88.265
X114.843Y-106.137
X114.853Y-103.587
X118.745Y-90.805
X118.745Y-93.345
X120.65Y-108.585
X178.435Y-93.345
X183.423Y-108.677
X192.948Y-103.597
X193.04Y-113.665
X196.215Y-116.84
X197.485Y-104.14
X201.295Y-103.505
T6
X94.209Y-82.267
X94.209Y-110.207
X99.749Y-83.367
X99.749Y-111.307
X99.779Y-77.977
X99.779Y-105.917
T7
X95.79Y-88.615
X95.79Y-100.615
X188.31Y-88.425
X200.31Y-88.425
T0
M30
